<svg width="174" height="117" viewBox="0 0 174 117" fill="none" xmlns="http://www.w3.org/2000/svg">
<path d="M36.5488 58.185C35.6588 52.934 32.5438 50.264 27.2038 50.264C25.1568 50.264 23.4657 50.798 22.1308 51.688C20.7068 52.578 19.6387 53.824 18.7488 55.248C17.8588 56.672 17.3248 58.274 16.9687 60.054C16.6128 61.834 16.4347 63.525 16.4347 65.216C16.4347 66.907 16.6128 68.598 16.9687 70.289C17.3248 72.069 17.8588 73.582 18.6598 75.006C19.4608 76.43 20.5288 77.498 21.9528 78.388C23.2877 79.278 24.9788 79.723 26.9367 79.723C29.9628 79.723 32.2768 78.922 33.8788 77.231C35.4808 75.54 36.5488 73.226 36.9938 70.378H49.1868C48.2968 76.519 45.9828 81.147 42.0668 84.351C38.1508 87.555 33.0778 89.157 27.0258 89.157C23.5548 89.157 20.3507 88.623 17.5027 87.466C14.6548 86.309 12.1627 84.707 10.2047 82.571C8.15775 80.524 6.55575 78.032 5.48775 75.184C4.33075 72.336 3.79675 69.132 3.79675 65.661C3.79675 62.101 4.24175 58.808 5.30975 55.782C6.37775 52.756 7.89075 50.086 9.93775 47.861C11.8957 45.636 14.3877 43.856 17.3248 42.61C20.1728 41.364 23.5548 40.741 27.2928 40.741C29.9628 40.741 32.6328 41.097 35.1248 41.809C37.6168 42.521 39.9308 43.678 41.8888 45.102C43.8468 46.526 45.5378 48.395 46.7838 50.531C48.0298 52.667 48.7418 55.248 48.9198 58.185H36.5488ZM134.821 64.86C134.821 62.991 134.643 61.211 134.287 59.431C133.931 57.651 133.308 56.138 132.418 54.803C131.528 53.468 130.46 52.4 129.125 51.51C127.701 50.709 126.01 50.264 123.963 50.264C121.827 50.264 120.136 50.709 118.712 51.51C117.288 52.4 116.131 53.468 115.241 54.803C114.351 56.227 113.728 57.74 113.372 59.52C113.016 61.3 112.838 63.08 112.838 64.949C112.838 66.729 113.016 68.509 113.461 70.289C113.817 72.069 114.529 73.671 115.419 75.095C116.309 76.519 117.466 77.587 118.89 78.477C120.314 79.367 122.005 79.723 123.963 79.723C126.01 79.723 127.701 79.367 129.125 78.477C130.549 77.676 131.617 76.608 132.507 75.184C133.308 73.76 133.931 72.158 134.287 70.378C134.643 68.598 134.821 66.818 134.821 64.86ZM134.999 82.126H134.821C133.308 84.618 131.35 86.487 128.947 87.555C126.544 88.623 123.874 89.157 120.848 89.157C117.377 89.157 114.351 88.534 111.77 87.199C109.1 85.864 106.964 84.084 105.273 81.77C103.582 79.456 102.336 76.875 101.446 73.849C100.556 70.912 100.2 67.797 100.2 64.593C100.2 61.567 100.556 58.541 101.446 55.693C102.336 52.845 103.582 50.264 105.273 48.039C106.964 45.903 109.1 44.123 111.681 42.788C114.173 41.453 117.199 40.741 120.581 40.741C123.251 40.741 125.832 41.364 128.324 42.521C130.816 43.678 132.774 45.369 134.198 47.594H134.376V24.454H147.014V88H134.999V82.126ZM162.44 34.867H149.802V24.454H162.44V34.867ZM149.802 41.987H162.44V88H149.802V41.987Z" fill="white"/>
<path d="M12.3509 103.912V108H11.0209V103.912L7.15691 98.004H8.73891L11.7349 102.764L14.6609 98.004H16.1729L12.3509 103.912ZM16.4124 104.388C16.4124 104.836 16.4684 105.228 16.5804 105.564C16.6924 105.9 16.8604 106.194 17.0704 106.418C17.2664 106.642 17.5044 106.824 17.7844 106.936C18.0644 107.062 18.3584 107.118 18.6664 107.118C18.9744 107.118 19.2544 107.062 19.5344 106.936C19.8144 106.824 20.0524 106.642 20.2624 106.418C20.4584 106.194 20.6264 105.9 20.7384 105.564C20.8504 105.228 20.9204 104.836 20.9204 104.388C20.9204 103.954 20.8504 103.562 20.7384 103.226C20.6264 102.89 20.4584 102.596 20.2624 102.358C20.0524 102.134 19.8144 101.952 19.5344 101.826C19.2544 101.714 18.9744 101.658 18.6664 101.644C18.3584 101.644 18.0644 101.714 17.7844 101.826C17.5044 101.952 17.2664 102.134 17.0704 102.358C16.8604 102.596 16.6924 102.89 16.5804 103.226C16.4684 103.562 16.4124 103.954 16.4124 104.388ZM15.1524 104.388C15.1524 103.856 15.2224 103.366 15.3764 102.904C15.5164 102.442 15.7404 102.036 16.0484 101.7C16.3424 101.364 16.7064 101.084 17.1544 100.888C17.5884 100.692 18.0924 100.594 18.6664 100.594C19.2404 100.594 19.7444 100.692 20.1784 100.888C20.6124 101.084 20.9764 101.364 21.2844 101.7C21.5784 102.036 21.8024 102.442 21.9564 102.904C22.0964 103.366 22.1804 103.856 22.1804 104.388C22.1804 104.92 22.0964 105.424 21.9564 105.872C21.8024 106.334 21.5784 106.74 21.2844 107.076C20.9764 107.412 20.6124 107.678 20.1784 107.874C19.7444 108.07 19.2404 108.154 18.6664 108.154C18.0924 108.154 17.5884 108.07 17.1544 107.874C16.7064 107.678 16.3424 107.412 16.0484 107.076C15.7404 106.74 15.5164 106.334 15.3764 105.872C15.2224 105.424 15.1524 104.92 15.1524 104.388ZM29.5755 108H28.4555V106.852H28.4275C28.1755 107.3 27.8535 107.636 27.4615 107.846C27.0695 108.056 26.6075 108.154 26.0755 108.154C25.5995 108.154 25.1935 108.098 24.8855 107.972C24.5635 107.846 24.3115 107.664 24.1155 107.426C23.9195 107.202 23.7795 106.922 23.6955 106.6C23.6115 106.278 23.5835 105.914 23.5835 105.522V100.762H24.7735V105.662C24.7735 106.11 24.8995 106.474 25.1655 106.726C25.4175 106.992 25.7815 107.118 26.2435 107.118C26.6075 107.118 26.9155 107.062 27.1815 106.95C27.4475 106.838 27.6715 106.684 27.8535 106.474C28.0215 106.278 28.1615 106.04 28.2455 105.76C28.3295 105.48 28.3855 105.186 28.3855 104.85V100.762H29.5755V108ZM31.3208 100.762H32.4408V102.288H32.4688C32.7488 101.7 33.1128 101.266 33.5328 100.986C33.9528 100.706 34.4848 100.58 35.1288 100.594V101.854C34.6528 101.854 34.2468 101.924 33.9108 102.05C33.5748 102.19 33.2948 102.372 33.0988 102.624C32.8888 102.876 32.7348 103.184 32.6508 103.548C32.5528 103.912 32.5108 104.318 32.5108 104.78V108H31.3208V100.762ZM41.1814 99.46H39.9914V98.004H41.1814V99.46ZM39.9914 100.762H41.1814V108H39.9914V100.762ZM43.8929 104.444C43.8929 104.78 43.9349 105.116 44.0189 105.438C44.1029 105.76 44.2429 106.04 44.4249 106.292C44.6069 106.544 44.8449 106.754 45.1249 106.894C45.4049 107.048 45.7409 107.118 46.1329 107.118C46.5249 107.118 46.8749 107.048 47.1549 106.88C47.4209 106.726 47.6589 106.516 47.8409 106.264C48.0089 106.012 48.1349 105.718 48.2189 105.382C48.3029 105.06 48.3309 104.724 48.3449 104.388C48.3449 104.038 48.3029 103.702 48.2189 103.366C48.1349 103.03 47.9949 102.736 47.8129 102.484C47.6309 102.232 47.3929 102.036 47.1129 101.882C46.8189 101.728 46.4689 101.644 46.0629 101.644C45.6569 101.644 45.3209 101.728 45.0409 101.882C44.7609 102.05 44.5369 102.26 44.3689 102.512C44.2009 102.778 44.0749 103.072 44.0049 103.408C43.9209 103.744 43.8929 104.094 43.8929 104.444ZM49.4929 108H48.3029V107.02H48.2749C48.0789 107.426 47.7709 107.72 47.3509 107.888C46.9309 108.07 46.4689 108.154 45.9649 108.154C45.4049 108.154 44.9149 108.056 44.4949 107.846C44.0749 107.65 43.7389 107.37 43.4589 107.02C43.1789 106.684 42.9829 106.278 42.8429 105.816C42.7029 105.368 42.6329 104.878 42.6329 104.36C42.6329 103.856 42.6889 103.366 42.8289 102.904C42.9689 102.456 43.1649 102.05 43.4449 101.714C43.7249 101.378 44.0609 101.098 44.4809 100.902C44.9009 100.706 45.3769 100.608 45.9369 100.594C46.1189 100.594 46.3149 100.622 46.5389 100.65C46.7489 100.692 46.9589 100.762 47.1829 100.846C47.3929 100.93 47.5889 101.056 47.7849 101.196C47.9809 101.336 48.1349 101.518 48.2749 101.728H48.3029V98.004H49.4929V108ZM56.3497 103.688C56.3217 103.408 56.2657 103.142 56.1537 102.89C56.0417 102.638 55.9017 102.428 55.7197 102.246C55.5377 102.064 55.3277 101.924 55.0757 101.812C54.8237 101.7 54.5577 101.658 54.2637 101.644C53.9557 101.644 53.6757 101.7 53.4237 101.812C53.1717 101.924 52.9617 102.064 52.7937 102.246C52.6117 102.442 52.4717 102.652 52.3737 102.904C52.2617 103.156 52.2057 103.408 52.1917 103.688H56.3497ZM57.4977 105.704C57.3297 106.516 56.9797 107.132 56.4477 107.538C55.9017 107.958 55.2157 108.154 54.4037 108.154C53.8157 108.154 53.3117 108.07 52.8917 107.874C52.4717 107.692 52.1077 107.426 51.8277 107.09C51.5337 106.754 51.3097 106.362 51.1697 105.886C51.0297 105.424 50.9457 104.92 50.9317 104.36C50.9317 103.814 51.0157 103.31 51.1837 102.848C51.3517 102.4 51.5757 101.994 51.8837 101.658C52.1917 101.322 52.5417 101.07 52.9617 100.874C53.3817 100.692 53.8297 100.608 54.3337 100.594C54.9777 100.594 55.5097 100.734 55.9297 101C56.3497 101.266 56.6997 101.602 56.9517 102.008C57.2037 102.428 57.3857 102.876 57.4837 103.352C57.5817 103.842 57.6237 104.304 57.6097 104.738H52.1917C52.1777 105.06 52.2197 105.368 52.3037 105.648C52.3877 105.928 52.5137 106.18 52.7097 106.404C52.8917 106.628 53.1297 106.796 53.4237 106.922C53.7037 107.062 54.0537 107.118 54.4457 107.118C54.9497 107.118 55.3557 107.006 55.6777 106.768C55.9997 106.544 56.2097 106.18 56.3217 105.704H57.4977ZM65.2553 107.972C65.0453 108.098 64.7653 108.154 64.4013 108.154C64.0933 108.154 63.8413 108.07 63.6593 107.902C63.4773 107.734 63.3933 107.44 63.3933 107.048C63.0573 107.44 62.6793 107.734 62.2453 107.902C61.8113 108.07 61.3493 108.154 60.8453 108.154C60.5093 108.154 60.2013 108.126 59.9213 108.056C59.6273 107.986 59.3753 107.874 59.1513 107.706C58.9273 107.538 58.7593 107.328 58.6333 107.076C58.5073 106.824 58.4513 106.502 58.4513 106.138C58.4513 105.732 58.5213 105.396 58.6613 105.13C58.8013 104.878 58.9833 104.668 59.2073 104.5C59.4313 104.332 59.6973 104.206 59.9913 104.122C60.2853 104.038 60.5933 103.968 60.9013 103.912C61.2233 103.856 61.5313 103.8 61.8253 103.772C62.1193 103.744 62.3853 103.688 62.6093 103.632C62.8333 103.576 63.0013 103.478 63.1413 103.366C63.2673 103.254 63.3373 103.072 63.3373 102.848C63.3373 102.596 63.2813 102.386 63.1833 102.218C63.0853 102.064 62.9593 101.938 62.8053 101.854C62.6513 101.77 62.4833 101.714 62.2873 101.686C62.0913 101.658 61.9093 101.644 61.7273 101.644C61.2233 101.644 60.8033 101.742 60.4673 101.938C60.1313 102.134 59.9493 102.484 59.9213 103.016H58.7313C58.7453 102.568 58.8433 102.19 59.0113 101.882C59.1793 101.574 59.4033 101.336 59.6833 101.14C59.9633 100.944 60.2853 100.818 60.6493 100.72C61.0133 100.636 61.3913 100.594 61.7973 100.594C62.1193 100.594 62.4413 100.622 62.7633 100.664C63.0853 100.72 63.3793 100.818 63.6453 100.958C63.8973 101.098 64.1073 101.308 64.2753 101.56C64.4293 101.826 64.5133 102.162 64.5133 102.582V106.306C64.5133 106.586 64.5273 106.796 64.5553 106.922C64.5833 107.062 64.6953 107.118 64.8913 107.118C64.9893 107.118 65.1153 107.104 65.2553 107.048V107.972ZM63.3233 104.262C63.1693 104.374 62.9733 104.458 62.7353 104.514C62.4833 104.57 62.2313 104.612 61.9653 104.64C61.6993 104.668 61.4333 104.71 61.1673 104.752C60.8873 104.794 60.6493 104.864 60.4393 104.948C60.2153 105.046 60.0473 105.186 59.9073 105.354C59.7673 105.522 59.7113 105.76 59.7113 106.054C59.7113 106.25 59.7393 106.418 59.8233 106.558C59.9073 106.698 60.0053 106.796 60.1313 106.88C60.2573 106.964 60.4113 107.034 60.5793 107.062C60.7473 107.104 60.9293 107.118 61.1113 107.118C61.5033 107.118 61.8393 107.076 62.1193 106.964C62.3993 106.852 62.6233 106.726 62.8053 106.558C62.9733 106.39 63.0993 106.222 63.1973 106.026C63.2813 105.83 63.3233 105.648 63.3233 105.48V104.262ZM67.0908 105.718C67.0908 105.984 67.1608 106.208 67.2728 106.39C67.3848 106.572 67.5248 106.712 67.7068 106.824C67.8888 106.936 68.0988 107.006 68.3228 107.048C68.5468 107.104 68.7848 107.118 69.0368 107.118C69.2188 107.118 69.4148 107.104 69.6248 107.076C69.8208 107.048 70.0168 107.006 70.1848 106.922C70.3528 106.852 70.5068 106.74 70.6188 106.6C70.7308 106.46 70.7868 106.264 70.7868 106.04C70.7868 105.732 70.6608 105.508 70.4368 105.34C70.1988 105.186 69.9048 105.06 69.5548 104.962C69.2048 104.864 68.8268 104.78 68.4208 104.696C68.0008 104.612 67.6228 104.5 67.2728 104.36C66.9228 104.22 66.6288 104.01 66.4048 103.744C66.1668 103.492 66.0548 103.128 66.0548 102.652C66.0548 102.288 66.1248 101.98 66.2928 101.714C66.4608 101.462 66.6708 101.252 66.9228 101.084C67.1748 100.916 67.4688 100.804 67.7908 100.72C68.1128 100.636 68.4348 100.594 68.7568 100.594C69.1628 100.594 69.5408 100.636 69.8908 100.706C70.2268 100.776 70.5348 100.902 70.8008 101.07C71.0668 101.238 71.2768 101.476 71.4448 101.77C71.5988 102.064 71.6968 102.428 71.7248 102.862H70.5348C70.5068 102.638 70.4508 102.442 70.3528 102.288C70.2408 102.134 70.1148 102.008 69.9608 101.91C69.7928 101.826 69.6248 101.756 69.4288 101.714C69.2328 101.672 69.0508 101.644 68.8548 101.644C68.6728 101.644 68.4908 101.658 68.3088 101.686C68.1268 101.714 67.9588 101.77 67.8188 101.84C67.6648 101.91 67.5388 102.008 67.4548 102.12C67.3568 102.232 67.3148 102.386 67.3148 102.568C67.3148 102.778 67.3848 102.946 67.5248 103.086C67.6648 103.226 67.8608 103.338 68.0848 103.422C68.3088 103.506 68.5608 103.59 68.8408 103.646C69.1208 103.702 69.4008 103.772 69.6808 103.828C69.9748 103.898 70.2688 103.982 70.5488 104.066C70.8288 104.164 71.0808 104.29 71.3048 104.444C71.5288 104.598 71.6968 104.794 71.8368 105.018C71.9768 105.256 72.0328 105.55 72.0468 105.886C72.0468 106.334 71.9488 106.698 71.7668 106.978C71.5848 107.272 71.3468 107.51 71.0528 107.678C70.7588 107.86 70.4228 107.986 70.0588 108.056C69.6948 108.126 69.3308 108.154 68.9668 108.154C68.5608 108.154 68.1828 108.112 67.8188 108.028C67.4548 107.944 67.1328 107.818 66.8528 107.622C66.5728 107.426 66.3488 107.174 66.1808 106.866C66.0128 106.558 65.9148 106.166 65.9008 105.718H67.0908ZM73.6288 106.446H75.1828V107.86C75.1828 108.392 75.0568 108.854 74.8188 109.232C74.5668 109.624 74.1748 109.89 73.6428 110.044V109.344C73.7968 109.288 73.9228 109.218 74.0348 109.106C74.1468 108.994 74.2308 108.882 74.3008 108.756C74.3568 108.63 74.3988 108.504 74.4268 108.364C74.4548 108.238 74.4548 108.112 74.4548 108H73.6288V106.446ZM82.4158 99.46H81.2258V98.004H82.4158V99.46ZM81.2258 100.762H82.4158V108H81.2258V100.762ZM84.2593 100.762H85.3793V101.91H85.4073C85.8973 101.042 86.6813 100.594 87.7593 100.594C88.2353 100.594 88.6273 100.664 88.9493 100.79C89.2573 100.93 89.5233 101.112 89.7193 101.336C89.9013 101.574 90.0413 101.854 90.1253 102.176C90.2093 102.498 90.2373 102.848 90.2513 103.24V108H89.0613V103.1C89.0613 102.652 88.9213 102.302 88.6693 102.036C88.4033 101.784 88.0393 101.658 87.5913 101.644C87.2273 101.644 86.9053 101.7 86.6393 101.812C86.3733 101.924 86.1493 102.092 85.9813 102.288C85.7993 102.498 85.6593 102.736 85.5753 103.016C85.4913 103.296 85.4493 103.59 85.4493 103.912V108H84.2593V100.762ZM92.7666 105.718C92.7666 105.984 92.8366 106.208 92.9486 106.39C93.0606 106.572 93.2006 106.712 93.3826 106.824C93.5646 106.936 93.7746 107.006 93.9986 107.048C94.2226 107.104 94.4606 107.118 94.7126 107.118C94.8946 107.118 95.0906 107.104 95.3006 107.076C95.4966 107.048 95.6926 107.006 95.8606 106.922C96.0286 106.852 96.1826 106.74 96.2946 106.6C96.4066 106.46 96.4626 106.264 96.4626 106.04C96.4626 105.732 96.3366 105.508 96.1126 105.34C95.8746 105.186 95.5806 105.06 95.2306 104.962C94.8806 104.864 94.5026 104.78 94.0966 104.696C93.6766 104.612 93.2986 104.5 92.9486 104.36C92.5986 104.22 92.3046 104.01 92.0806 103.744C91.8426 103.492 91.7306 103.128 91.7306 102.652C91.7306 102.288 91.8006 101.98 91.9686 101.714C92.1366 101.462 92.3466 101.252 92.5986 101.084C92.8506 100.916 93.1446 100.804 93.4666 100.72C93.7886 100.636 94.1106 100.594 94.4326 100.594C94.8386 100.594 95.2166 100.636 95.5666 100.706C95.9026 100.776 96.2106 100.902 96.4766 101.07C96.7426 101.238 96.9526 101.476 97.1206 101.77C97.2746 102.064 97.3726 102.428 97.4006 102.862H96.2106C96.1826 102.638 96.1266 102.442 96.0286 102.288C95.9166 102.134 95.7906 102.008 95.6366 101.91C95.4686 101.826 95.3006 101.756 95.1046 101.714C94.9086 101.672 94.7266 101.644 94.5306 101.644C94.3486 101.644 94.1666 101.658 93.9846 101.686C93.8026 101.714 93.6346 101.77 93.4946 101.84C93.3406 101.91 93.2146 102.008 93.1306 102.12C93.0326 102.232 92.9906 102.386 92.9906 102.568C92.9906 102.778 93.0606 102.946 93.2006 103.086C93.3406 103.226 93.5366 103.338 93.7606 103.422C93.9846 103.506 94.2366 103.59 94.5166 103.646C94.7966 103.702 95.0766 103.772 95.3566 103.828C95.6506 103.898 95.9446 103.982 96.2246 104.066C96.5046 104.164 96.7566 104.29 96.9806 104.444C97.2046 104.598 97.3726 104.794 97.5126 105.018C97.6526 105.256 97.7086 105.55 97.7226 105.886C97.7226 106.334 97.6246 106.698 97.4426 106.978C97.2606 107.272 97.0226 107.51 96.7286 107.678C96.4346 107.86 96.0986 107.986 95.7346 108.056C95.3706 108.126 95.0066 108.154 94.6426 108.154C94.2366 108.154 93.8586 108.112 93.4946 108.028C93.1306 107.944 92.8086 107.818 92.5286 107.622C92.2486 107.426 92.0246 107.174 91.8566 106.866C91.6886 106.558 91.5906 106.166 91.5766 105.718H92.7666ZM100.691 100.762H102.133V101.812H100.691V106.306C100.691 106.446 100.691 106.558 100.719 106.642C100.747 106.726 100.789 106.796 100.859 106.838C100.915 106.894 101.013 106.922 101.125 106.936C101.237 106.95 101.391 106.95 101.587 106.95H102.133V108H101.223C100.915 108 100.649 107.986 100.425 107.944C100.201 107.902 100.033 107.818 99.8926 107.706C99.7526 107.594 99.6546 107.44 99.5986 107.23C99.5286 107.034 99.5006 106.754 99.5006 106.418V101.812H98.2686V100.762H99.5006V98.592H100.691V100.762ZM109.867 107.972C109.657 108.098 109.377 108.154 109.013 108.154C108.705 108.154 108.453 108.07 108.271 107.902C108.089 107.734 108.005 107.44 108.005 107.048C107.669 107.44 107.291 107.734 106.857 107.902C106.423 108.07 105.961 108.154 105.457 108.154C105.121 108.154 104.813 108.126 104.533 108.056C104.239 107.986 103.987 107.874 103.763 107.706C103.539 107.538 103.371 107.328 103.245 107.076C103.119 106.824 103.063 106.502 103.063 106.138C103.063 105.732 103.133 105.396 103.273 105.13C103.413 104.878 103.595 104.668 103.819 104.5C104.043 104.332 104.309 104.206 104.603 104.122C104.897 104.038 105.205 103.968 105.513 103.912C105.835 103.856 106.143 103.8 106.437 103.772C106.731 103.744 106.997 103.688 107.221 103.632C107.445 103.576 107.613 103.478 107.753 103.366C107.879 103.254 107.949 103.072 107.949 102.848C107.949 102.596 107.893 102.386 107.795 102.218C107.697 102.064 107.571 101.938 107.417 101.854C107.263 101.77 107.095 101.714 106.899 101.686C106.703 101.658 106.521 101.644 106.339 101.644C105.835 101.644 105.415 101.742 105.079 101.938C104.743 102.134 104.561 102.484 104.533 103.016H103.343C103.357 102.568 103.455 102.19 103.623 101.882C103.791 101.574 104.015 101.336 104.295 101.14C104.575 100.944 104.897 100.818 105.261 100.72C105.625 100.636 106.003 100.594 106.409 100.594C106.731 100.594 107.053 100.622 107.375 100.664C107.697 100.72 107.991 100.818 108.257 100.958C108.509 101.098 108.719 101.308 108.887 101.56C109.041 101.826 109.125 102.162 109.125 102.582V106.306C109.125 106.586 109.139 106.796 109.167 106.922C109.195 107.062 109.307 107.118 109.503 107.118C109.601 107.118 109.727 107.104 109.867 107.048V107.972ZM107.935 104.262C107.781 104.374 107.585 104.458 107.347 104.514C107.095 104.57 106.843 104.612 106.577 104.64C106.311 104.668 106.045 104.71 105.779 104.752C105.499 104.794 105.261 104.864 105.051 104.948C104.827 105.046 104.659 105.186 104.519 105.354C104.379 105.522 104.323 105.76 104.323 106.054C104.323 106.25 104.351 106.418 104.435 106.558C104.519 106.698 104.617 106.796 104.743 106.88C104.869 106.964 105.023 107.034 105.191 107.062C105.359 107.104 105.541 107.118 105.723 107.118C106.115 107.118 106.451 107.076 106.731 106.964C107.011 106.852 107.235 106.726 107.417 106.558C107.585 106.39 107.711 106.222 107.809 106.026C107.893 105.83 107.935 105.648 107.935 105.48V104.262ZM110.974 100.762H112.094V101.91H112.122C112.612 101.042 113.396 100.594 114.474 100.594C114.95 100.594 115.342 100.664 115.664 100.79C115.972 100.93 116.238 101.112 116.434 101.336C116.616 101.574 116.756 101.854 116.84 102.176C116.924 102.498 116.952 102.848 116.966 103.24V108H115.776V103.1C115.776 102.652 115.636 102.302 115.384 102.036C115.118 101.784 114.754 101.658 114.306 101.644C113.942 101.644 113.62 101.7 113.354 101.812C113.088 101.924 112.864 102.092 112.696 102.288C112.514 102.498 112.374 102.736 112.29 103.016C112.206 103.296 112.164 103.59 112.164 103.912V108H110.974V100.762ZM120.405 100.762H121.847V101.812H120.405V106.306C120.405 106.446 120.405 106.558 120.433 106.642C120.461 106.726 120.503 106.796 120.573 106.838C120.629 106.894 120.727 106.922 120.839 106.936C120.951 106.95 121.105 106.95 121.301 106.95H121.847V108H120.937C120.629 108 120.363 107.986 120.139 107.944C119.915 107.902 119.747 107.818 119.607 107.706C119.467 107.594 119.369 107.44 119.313 107.23C119.243 107.034 119.215 106.754 119.215 106.418V101.812H117.983V100.762H119.215V98.592H120.405V100.762ZM123.239 98.004H124.429V108H123.239V98.004ZM129.115 108.952C128.975 109.316 128.835 109.61 128.695 109.848C128.555 110.1 128.415 110.296 128.247 110.45C128.079 110.604 127.911 110.716 127.715 110.786C127.519 110.856 127.281 110.884 127.015 110.884C126.875 110.884 126.735 110.884 126.595 110.856C126.455 110.842 126.315 110.814 126.189 110.758V109.666C126.301 109.708 126.413 109.75 126.525 109.778C126.637 109.82 126.763 109.848 126.889 109.834C127.127 109.834 127.323 109.778 127.477 109.666C127.617 109.554 127.757 109.4 127.869 109.176L128.359 107.958L125.489 100.762H126.833L128.947 106.684H128.975L131.005 100.762H132.265L129.115 108.952ZM137.211 98.004H138.401V101.742H138.429C138.625 101.35 138.933 101.056 139.353 100.874C139.773 100.692 140.235 100.594 140.739 100.594C141.299 100.594 141.775 100.706 142.195 100.902C142.615 101.112 142.951 101.392 143.231 101.742C143.511 102.092 143.721 102.498 143.861 102.946C144.001 103.408 144.071 103.898 144.071 104.402C144.071 104.92 144.001 105.41 143.861 105.858C143.721 106.32 143.525 106.726 143.245 107.062C142.965 107.398 142.629 107.664 142.209 107.86C141.789 108.056 141.313 108.154 140.767 108.154C140.585 108.154 140.389 108.14 140.165 108.098C139.941 108.07 139.731 108 139.521 107.916C139.297 107.832 139.101 107.72 138.905 107.58C138.709 107.44 138.555 107.258 138.429 107.034H138.401V108H137.211V98.004ZM142.811 104.318C142.811 103.982 142.755 103.66 142.671 103.338C142.587 103.016 142.447 102.722 142.265 102.47C142.083 102.232 141.845 102.022 141.565 101.868C141.285 101.728 140.949 101.658 140.571 101.644C140.165 101.644 139.829 101.728 139.549 101.882C139.269 102.05 139.031 102.26 138.863 102.512C138.681 102.764 138.555 103.058 138.471 103.38C138.387 103.716 138.359 104.038 138.359 104.374C138.359 104.738 138.401 105.074 138.485 105.41C138.569 105.746 138.695 106.026 138.877 106.278C139.059 106.53 139.297 106.74 139.591 106.894C139.871 107.048 140.221 107.118 140.641 107.118C141.047 107.118 141.383 107.048 141.663 106.88C141.943 106.726 142.153 106.516 142.335 106.25C142.503 105.998 142.615 105.69 142.699 105.354C142.769 105.018 142.811 104.682 142.811 104.318ZM151.46 108H150.34V106.852H150.312C150.06 107.3 149.738 107.636 149.346 107.846C148.954 108.056 148.492 108.154 147.96 108.154C147.484 108.154 147.078 108.098 146.77 107.972C146.448 107.846 146.196 107.664 146 107.426C145.804 107.202 145.664 106.922 145.58 106.6C145.496 106.278 145.468 105.914 145.468 105.522V100.762H146.658V105.662C146.658 106.11 146.784 106.474 147.05 106.726C147.302 106.992 147.666 107.118 148.128 107.118C148.492 107.118 148.8 107.062 149.066 106.95C149.332 106.838 149.556 106.684 149.738 106.474C149.906 106.278 150.046 106.04 150.13 105.76C150.214 105.48 150.27 105.186 150.27 104.85V100.762H151.46V108ZM154.508 99.46H153.318V98.004H154.508V99.46ZM153.318 100.762H154.508V108H153.318V100.762ZM156.421 98.004H157.611V108H156.421V98.004ZM161.107 100.762H162.549V101.812H161.107V106.306C161.107 106.446 161.107 106.558 161.135 106.642C161.163 106.726 161.205 106.796 161.275 106.838C161.331 106.894 161.429 106.922 161.541 106.936C161.653 106.95 161.807 106.95 162.003 106.95H162.549V108H161.639C161.331 108 161.065 107.986 160.841 107.944C160.617 107.902 160.449 107.818 160.309 107.706C160.169 107.594 160.071 107.44 160.015 107.23C159.945 107.034 159.917 106.754 159.917 106.418V101.812H158.685V100.762H159.917V98.592H161.107V100.762ZM164.137 106.446H165.691V108H164.137V106.446Z" fill="#747474"/>
<g filter="url(#filter0_d_2218_2721)">
<circle cx="74" cy="65" r="25" fill="#C0E6FF"/>
</g>
<circle cx="74.0002" cy="65.0011" r="23.9855" fill="white" fill-opacity="0.31"/>
<g filter="url(#filter1_d_2218_2721)">
<circle cx="73.9997" cy="64.9939" r="23.4783" fill="url(#paint0_radial_2218_2721)"/>
</g>
<g filter="url(#filter2_d_2218_2721)">
<ellipse cx="65.3174" cy="56.8589" rx="4.49384" ry="6.6225" transform="rotate(-17.965 65.3174 56.8589)" fill="url(#paint1_radial_2218_2721)"/>
<path d="M63.3115 50.6716C64.4433 50.3047 65.7001 50.6445 66.8227 51.5175C67.9448 52.3903 68.9215 53.7891 69.4792 55.509C70.0369 57.229 70.0671 58.9355 69.6706 60.3007C69.2739 61.6664 68.4556 62.679 67.3239 63.0461C66.1919 63.4131 64.9344 63.0736 63.8117 62.2005C62.6895 61.3276 61.7126 59.9282 61.1549 58.2081C60.5973 56.4881 60.5673 54.7824 60.9638 53.4172C61.3605 52.0513 62.1795 51.0386 63.3115 50.6716Z" stroke="white" stroke-opacity="0.12" stroke-width="0.236518"/>
</g>
<g filter="url(#filter3_d_2218_2721)">
<ellipse cx="82.7636" cy="52.687" rx="4.49384" ry="6.6225" transform="rotate(-17.965 82.7636 52.687)" fill="url(#paint2_radial_2218_2721)"/>
<path d="M80.7578 46.4997C81.8896 46.1328 83.1464 46.4726 84.269 47.3456C85.3911 48.2184 86.3678 49.6172 86.9255 51.3371C87.4832 53.0572 87.5134 54.7636 87.1169 56.1289C86.7202 57.4945 85.9019 58.5071 84.7701 58.8742C83.6382 59.2413 82.3807 58.9017 81.258 58.0286C80.1358 57.1558 79.1589 55.7563 78.6012 54.0362C78.0436 52.3163 78.0136 50.6105 78.4101 49.2454C78.8068 47.8795 79.6258 46.8667 80.7578 46.4997Z" stroke="white" stroke-opacity="0.12" stroke-width="0.236518"/>
</g>
<defs>
<filter id="filter0_d_2218_2721" x="40" y="38" width="68" height="68" filterUnits="userSpaceOnUse" color-interpolation-filters="sRGB">
<feFlood flood-opacity="0" result="BackgroundImageFix"/>
<feColorMatrix in="SourceAlpha" type="matrix" values="0 0 0 0 0 0 0 0 0 0 0 0 0 0 0 0 0 0 127 0" result="hardAlpha"/>
<feMorphology radius="1" operator="erode" in="SourceAlpha" result="effect1_dropShadow_2218_2721"/>
<feOffset dy="7"/>
<feGaussianBlur stdDeviation="5"/>
<feComposite in2="hardAlpha" operator="out"/>
<feColorMatrix type="matrix" values="0 0 0 0 0.718018 0 0 0 0 0.718018 0 0 0 0 0.718018 0 0 0 0.25 0"/>
<feBlend mode="normal" in2="BackgroundImageFix" result="effect1_dropShadow_2218_2721"/>
<feBlend mode="normal" in="SourceGraphic" in2="effect1_dropShadow_2218_2721" result="shape"/>
</filter>
<filter id="filter1_d_2218_2721" x="44.2316" y="35.2258" width="59.5358" height="59.5328" filterUnits="userSpaceOnUse" color-interpolation-filters="sRGB">
<feFlood flood-opacity="0" result="BackgroundImageFix"/>
<feColorMatrix in="SourceAlpha" type="matrix" values="0 0 0 0 0 0 0 0 0 0 0 0 0 0 0 0 0 0 127 0" result="hardAlpha"/>
<feMorphology radius="2.02899" operator="dilate" in="SourceAlpha" result="effect1_dropShadow_2218_2721"/>
<feOffset/>
<feGaussianBlur stdDeviation="2.13043"/>
<feComposite in2="hardAlpha" operator="out"/>
<feColorMatrix type="matrix" values="0 0 0 0 1 0 0 0 0 1 0 0 0 0 1 0 0 0 0.25 0"/>
<feBlend mode="normal" in2="BackgroundImageFix" result="effect1_dropShadow_2218_2721"/>
<feBlend mode="normal" in="SourceGraphic" in2="effect1_dropShadow_2218_2721" result="shape"/>
</filter>
<filter id="filter2_d_2218_2721" x="57.8818" y="49.6021" width="14.8701" height="18.2989" filterUnits="userSpaceOnUse" color-interpolation-filters="sRGB">
<feFlood flood-opacity="0" result="BackgroundImageFix"/>
<feColorMatrix in="SourceAlpha" type="matrix" values="0 0 0 0 0 0 0 0 0 0 0 0 0 0 0 0 0 0 127 0" result="hardAlpha"/>
<feOffset dy="1.89214"/>
<feGaussianBlur stdDeviation="1.34815"/>
<feComposite in2="hardAlpha" operator="out"/>
<feColorMatrix type="matrix" values="0 0 0 0 0 0 0 0 0 0 0 0 0 0 0 0 0 0 0.08 0"/>
<feBlend mode="normal" in2="BackgroundImageFix" result="effect1_dropShadow_2218_2721"/>
<feBlend mode="normal" in="SourceGraphic" in2="effect1_dropShadow_2218_2721" result="shape"/>
</filter>
<filter id="filter3_d_2218_2721" x="75.3281" y="45.4302" width="14.8701" height="18.2989" filterUnits="userSpaceOnUse" color-interpolation-filters="sRGB">
<feFlood flood-opacity="0" result="BackgroundImageFix"/>
<feColorMatrix in="SourceAlpha" type="matrix" values="0 0 0 0 0 0 0 0 0 0 0 0 0 0 0 0 0 0 127 0" result="hardAlpha"/>
<feOffset dy="1.89214"/>
<feGaussianBlur stdDeviation="1.34815"/>
<feComposite in2="hardAlpha" operator="out"/>
<feColorMatrix type="matrix" values="0 0 0 0 0 0 0 0 0 0 0 0 0 0 0 0 0 0 0.08 0"/>
<feBlend mode="normal" in2="BackgroundImageFix" result="effect1_dropShadow_2218_2721"/>
<feBlend mode="normal" in="SourceGraphic" in2="effect1_dropShadow_2218_2721" result="shape"/>
</filter>
<radialGradient id="paint0_radial_2218_2721" cx="0" cy="0" r="1" gradientUnits="userSpaceOnUse" gradientTransform="translate(73.6012 60.9721) rotate(108.814) scale(25.9519 25.3465)">
<stop stop-color="#1CA4FF"/>
<stop offset="1" stop-color="white"/>
</radialGradient>
<radialGradient id="paint1_radial_2218_2721" cx="0" cy="0" r="1" gradientUnits="userSpaceOnUse" gradientTransform="translate(65.4944 63.4619) rotate(84.7832) scale(11.1465 7.56369)">
<stop stop-color="#75C8FF"/>
<stop offset="1" stop-color="white"/>
</radialGradient>
<radialGradient id="paint2_radial_2218_2721" cx="0" cy="0" r="1" gradientUnits="userSpaceOnUse" gradientTransform="translate(82.9407 59.29) rotate(84.7832) scale(11.1465 7.56369)">
<stop stop-color="#75C8FF"/>
<stop offset="1" stop-color="white"/>
</radialGradient>
</defs>
</svg>
