<svg width="440" height="956" viewBox="0 0 440 956" fill="none" xmlns="http://www.w3.org/2000/svg">
<g clip-path="url(#clip0_2214_2678)">
<g filter="url(#filter0_f_2214_2678)">
<circle cx="180" cy="956" r="345" fill="#C0E6FF"/>
</g>
<circle cx="180" cy="956" r="331" fill="white" fill-opacity="0.31"/>
<g filter="url(#filter1_d_2214_2678)">
<circle cx="180" cy="956" r="324" fill="url(#paint0_radial_2214_2678)"/>
</g>
<g filter="url(#filter2_d_2214_2678)">
<ellipse cx="104.12" cy="796.048" rx="41.3433" ry="60.927" transform="rotate(-17.965 104.12 796.048)" fill="url(#paint1_radial_2214_2678)"/>
<path d="M85.6636 739.127C96.0783 735.75 107.643 738.875 117.972 746.909C128.296 754.939 137.281 767.807 142.412 783.632C147.543 799.457 147.819 815.149 144.171 827.709C140.521 840.276 132.991 849.592 122.577 852.97C112.162 856.347 100.597 853.222 90.267 845.187C79.943 837.157 70.9579 824.289 65.8269 808.464C60.6959 792.64 60.4202 776.947 64.068 764.387C67.7178 751.82 75.2488 742.504 85.6636 739.127Z" stroke="white" stroke-opacity="0.12" stroke-width="2.17596"/>
</g>
<g filter="url(#filter3_d_2214_2678)">
<ellipse cx="264.628" cy="757.705" rx="41.3433" ry="60.927" transform="rotate(-17.965 264.628 757.705)" fill="url(#paint2_radial_2214_2678)"/>
<path d="M246.171 700.783C256.586 697.406 268.15 700.531 278.48 708.565C288.804 716.595 297.789 729.464 302.92 745.288C308.051 761.113 308.327 776.805 304.679 789.365C301.029 801.932 293.499 811.249 283.084 814.626C272.669 818.003 261.105 814.878 250.775 806.844C240.451 798.814 231.466 785.945 226.335 770.121C221.204 754.296 220.928 738.604 224.576 726.044C228.226 713.477 235.757 704.16 246.171 700.783Z" stroke="white" stroke-opacity="0.12" stroke-width="2.17596"/>
</g>
</g>
<defs>
<filter id="filter0_f_2214_2678" x="-223.8" y="552.2" width="807.6" height="807.6" filterUnits="userSpaceOnUse" color-interpolation-filters="sRGB">
<feFlood flood-opacity="0" result="BackgroundImageFix"/>
<feBlend mode="normal" in="SourceGraphic" in2="BackgroundImageFix" result="shape"/>
<feGaussianBlur stdDeviation="29.4" result="effect1_foregroundBlur_2214_2678"/>
</filter>
<filter id="filter1_d_2214_2678" x="-230.8" y="545.2" width="821.6" height="821.6" filterUnits="userSpaceOnUse" color-interpolation-filters="sRGB">
<feFlood flood-opacity="0" result="BackgroundImageFix"/>
<feColorMatrix in="SourceAlpha" type="matrix" values="0 0 0 0 0 0 0 0 0 0 0 0 0 0 0 0 0 0 127 0" result="hardAlpha"/>
<feMorphology radius="28" operator="dilate" in="SourceAlpha" result="effect1_dropShadow_2214_2678"/>
<feOffset/>
<feGaussianBlur stdDeviation="29.4"/>
<feComposite in2="hardAlpha" operator="out"/>
<feColorMatrix type="matrix" values="0 0 0 0 1 0 0 0 0 1 0 0 0 0 1 0 0 0 0.25 0"/>
<feBlend mode="normal" in2="BackgroundImageFix" result="effect1_dropShadow_2214_2678"/>
<feBlend mode="normal" in="SourceGraphic" in2="effect1_dropShadow_2214_2678" result="shape"/>
</filter>
<filter id="filter2_d_2214_2678" x="35.7165" y="729.297" width="136.806" height="168.323" filterUnits="userSpaceOnUse" color-interpolation-filters="sRGB">
<feFlood flood-opacity="0" result="BackgroundImageFix"/>
<feColorMatrix in="SourceAlpha" type="matrix" values="0 0 0 0 0 0 0 0 0 0 0 0 0 0 0 0 0 0 127 0" result="hardAlpha"/>
<feOffset dy="17.4077"/>
<feGaussianBlur stdDeviation="12.403"/>
<feComposite in2="hardAlpha" operator="out"/>
<feColorMatrix type="matrix" values="0 0 0 0 0 0 0 0 0 0 0 0 0 0 0 0 0 0 0.08 0"/>
<feBlend mode="normal" in2="BackgroundImageFix" result="effect1_dropShadow_2214_2678"/>
<feBlend mode="normal" in="SourceGraphic" in2="effect1_dropShadow_2214_2678" result="shape"/>
</filter>
<filter id="filter3_d_2214_2678" x="196.224" y="690.953" width="136.806" height="168.323" filterUnits="userSpaceOnUse" color-interpolation-filters="sRGB">
<feFlood flood-opacity="0" result="BackgroundImageFix"/>
<feColorMatrix in="SourceAlpha" type="matrix" values="0 0 0 0 0 0 0 0 0 0 0 0 0 0 0 0 0 0 127 0" result="hardAlpha"/>
<feOffset dy="17.4077"/>
<feGaussianBlur stdDeviation="12.403"/>
<feComposite in2="hardAlpha" operator="out"/>
<feColorMatrix type="matrix" values="0 0 0 0 0 0 0 0 0 0 0 0 0 0 0 0 0 0 0.08 0"/>
<feBlend mode="normal" in2="BackgroundImageFix" result="effect1_dropShadow_2214_2678"/>
<feBlend mode="normal" in="SourceGraphic" in2="effect1_dropShadow_2214_2678" result="shape"/>
</filter>
<radialGradient id="paint0_radial_2214_2678" cx="0" cy="0" r="1" gradientUnits="userSpaceOnUse" gradientTransform="translate(174.5 900.5) rotate(108.814) scale(358.136 349.781)">
<stop stop-color="#1CA4FF"/>
<stop offset="1" stop-color="white"/>
</radialGradient>
<radialGradient id="paint1_radial_2214_2678" cx="0" cy="0" r="1" gradientUnits="userSpaceOnUse" gradientTransform="translate(105.748 856.796) rotate(84.7832) scale(102.548 69.5859)">
<stop stop-color="#75C8FF"/>
<stop offset="1" stop-color="white"/>
</radialGradient>
<radialGradient id="paint2_radial_2214_2678" cx="0" cy="0" r="1" gradientUnits="userSpaceOnUse" gradientTransform="translate(266.256 818.452) rotate(84.7832) scale(102.548 69.5859)">
<stop stop-color="#75C8FF"/>
<stop offset="1" stop-color="white"/>
</radialGradient>
<clipPath id="clip0_2214_2678">
<rect width="440" height="956" fill="white"/>
</clipPath>
</defs>
</svg>
